<svg viewBox="0 0 2004 3096" fill="none" xmlns="http://www.w3.org/2000/svg" class="balls position-relative z-1 disabled" data-v-3479b4ac=""><g id="Balls" data-v-3479b4ac=""><g id="Group 316124343" data-v-3479b4ac=""><ellipse id="Ellipse 596" cx="1649.63" cy="460.41" rx="37.6335" ry="37.4104" fill="#473D36" data-v-3479b4ac=""></ellipse><path id="Vector 565" d="M1642.11 449.188C1660.92 449.188 1660.92 438.713 1660.92 428.986C1660.92 438.713 1660.92 449.188 1679.74 449.188C1660.92 449.188 1660.92 462.655 1660.92 471.634C1660.92 462.655 1660.92 449.188 1642.11 449.188Z" fill="#F3EFE6" data-v-3479b4ac=""></path></g><g id="Group 316124344" data-v-3479b4ac=""><ellipse id="Ellipse 597" cx="1545" cy="289.852" rx="25" ry="24.8519" fill="#B595BF" data-v-3479b4ac=""></ellipse><path id="Vector 566" d="M1539 281.481C1554.5 281.481 1554.5 272.935 1554.5 265C1554.5 272.935 1554.5 281.481 1570 281.481C1554.5 281.481 1554.5 292.468 1554.5 299.793C1554.5 292.468 1554.5 281.481 1539 281.481Z" fill="#F3EFE6" data-v-3479b4ac=""></path></g><g id="Group 316124345" data-v-3479b4ac=""><ellipse id="Ellipse 597_2" cx="1845" cy="1843.85" rx="25" ry="24.8519" fill="#B88AC6" data-v-3479b4ac=""></ellipse><path id="Vector 566_2" d="M1839 1835.48C1854.5 1835.48 1854.5 1826.94 1854.5 1819C1854.5 1826.94 1854.5 1835.48 1870 1835.48C1854.5 1835.48 1854.5 1846.47 1854.5 1853.79C1854.5 1846.47 1854.5 1835.48 1839 1835.48Z" fill="#F3EFE6" data-v-3479b4ac=""></path></g><g id="Group 316124346" data-v-3479b4ac=""><ellipse id="Ellipse 597_3" cx="368" cy="1534.85" rx="25" ry="24.8519" fill="#473D36" data-v-3479b4ac=""></ellipse><path id="Vector 566_3" d="M362 1526.48C377.5 1526.48 377.5 1517.94 377.5 1510C377.5 1517.94 377.5 1526.48 393 1526.48C377.5 1526.48 377.5 1537.47 377.5 1544.79C377.5 1537.47 377.5 1526.48 362 1526.48Z" fill="#F3EFE6" data-v-3479b4ac=""></path></g><g id="Group 316124347" data-v-3479b4ac=""><ellipse id="Ellipse 597_4" cx="236.5" cy="1763.3" rx="33.5" ry="33.3015" fill="#A380AE" data-v-3479b4ac=""></ellipse><path id="Vector 566_4" d="M228.46 1752.08C249.23 1752.08 249.23 1740.63 249.23 1730C249.23 1740.63 249.23 1752.08 270 1752.08C249.23 1752.08 249.23 1766.81 249.23 1776.62C249.23 1766.81 249.23 1752.08 228.46 1752.08Z" fill="#F3EFE6" data-v-3479b4ac=""></path></g><g id="Group 316124348" data-v-3479b4ac=""><ellipse id="Ellipse 592" cx="553" cy="326.905" rx="16" ry="15.9052" fill="#473D36" data-v-3479b4ac=""></ellipse><path id="Vector 565_2" d="M550 321.466C557.5 321.466 557.5 317.071 557.5 312.99C557.5 317.071 557.5 321.466 565 321.466C557.5 321.466 557.5 327.116 557.5 330.883C557.5 327.116 557.5 321.466 550 321.466Z" fill="#F3EFE6" data-v-3479b4ac=""></path></g><g id="Group 316124349" data-v-3479b4ac=""><ellipse id="Ellipse 593" cx="1371" cy="800.076" rx="7" ry="6.95852" fill="#473D36" data-v-3479b4ac=""></ellipse><path id="Vector 568" d="M1369 798.35C1373 798.35 1373 796.153 1373 794.112C1373 796.153 1373 798.35 1377 798.35C1373 798.35 1373 801.175 1373 803.059C1373 801.175 1373 798.35 1369 798.35Z" fill="#F3EFE6" data-v-3479b4ac=""></path></g><g id="Group 316124350" data-v-3479b4ac=""><ellipse id="Ellipse 593_2" cx="274" cy="743.076" rx="7" ry="6.95852" fill="#473D36" data-v-3479b4ac=""></ellipse><path id="Vector 568_2" d="M272 741.35C276 741.35 276 739.153 276 737.112C276 739.153 276 741.35 280 741.35C276 741.35 276 744.175 276 746.059C276 744.175 276 741.35 272 741.35Z" fill="#F3EFE6" data-v-3479b4ac=""></path></g><g id="Group 316124351" data-v-3479b4ac=""><ellipse id="Ellipse 599" cx="197" cy="314.905" rx="16" ry="15.9052" fill="#B595BF" data-v-3479b4ac=""></ellipse><path id="Vector 567" d="M195 311.039C201.5 311.039 201.5 307.376 201.5 303.975C201.5 307.376 201.5 311.039 208 311.039C201.5 311.039 201.5 315.747 201.5 318.886C201.5 315.747 201.5 311.039 195 311.039Z" fill="#F3EFE6" data-v-3479b4ac=""></path></g><g id="Group 316124352" data-v-3479b4ac=""><ellipse id="Ellipse 599_2" cx="626" cy="627.905" rx="16" ry="15.9052" fill="#B595BF" data-v-3479b4ac=""></ellipse><path id="Vector 567_2" d="M624 624.038C630.5 624.038 630.5 620.376 630.5 616.975C630.5 620.376 630.5 624.038 637 624.038C630.5 624.038 630.5 628.747 630.5 631.886C630.5 628.747 630.5 624.038 624 624.038Z" fill="#F3EFE6" data-v-3479b4ac=""></path></g><g id="Group 316124355" data-v-3479b4ac=""><ellipse id="Ellipse 596_2" cx="370.5" cy="73.5924" rx="34.5" ry="34.2956" fill="#473D36" data-v-3479b4ac=""></ellipse><path id="Vector 565_3" d="M364.98 60.5606C382.23 60.5606 382.23 50.9579 382.23 42.041C382.23 50.9579 382.23 60.5606 399.48 60.5606C382.23 60.5606 382.23 72.907 382.23 81.138C382.23 72.907 382.23 60.5606 364.98 60.5606Z" fill="#F3EFE6" data-v-3479b4ac=""></path></g><g id="Group 316124356" data-v-3479b4ac=""><ellipse id="Ellipse 592_2" cx="754" cy="100.905" rx="16" ry="15.9052" fill="#473D36" data-v-3479b4ac=""></ellipse><path id="Vector 565_4" d="M751 95.4659C758.5 95.4659 758.5 91.071 758.5 86.9901C758.5 91.071 758.5 95.4659 766 95.4659C758.5 95.4659 758.5 101.116 758.5 104.883C758.5 101.116 758.5 95.4659 751 95.4659Z" fill="#F3EFE6" data-v-3479b4ac=""></path></g><g id="Group 316124357" data-v-3479b4ac=""><ellipse id="Ellipse 516" cx="1002" cy="145.5" rx="19" ry="19.5" fill="#E07390" data-v-3479b4ac=""></ellipse><path id="Vector 566_5" d="M997 139.368C1007.5 139.368 1007.5 133.474 1007.5 128C1007.5 133.474 1007.5 139.368 1018 139.368C1007.5 139.368 1007.5 146.947 1007.5 152C1007.5 146.947 1007.5 139.368 997 139.368Z" fill="#F3EFE6" data-v-3479b4ac=""></path></g><g id="Group 316124358" data-v-3479b4ac=""><ellipse id="Ellipse 591" rx="13.5" ry="13.42" transform="matrix(-1 0 0 1 1764.5 71.2091)" fill="#E07390" data-v-3479b4ac=""></ellipse><path id="Vector 570" d="M1762 67.8375C1768.5 67.8375 1768.5 64.1751 1768.5 60.7743C1768.5 64.1751 1768.5 67.8375 1775 67.8375C1768.5 67.8375 1768.5 72.5462 1768.5 75.6854C1768.5 72.5462 1768.5 67.8375 1762 67.8375Z" fill="#F3EFE6" data-v-3479b4ac=""></path></g><g id="Group 316124359" data-v-3479b4ac=""><ellipse id="Ellipse 591_2" rx="13.5" ry="13.42" transform="matrix(-1 0 0 1 1743.5 1598.42)" fill="#E07390" data-v-3479b4ac=""></ellipse><path id="Vector 570_2" d="M1741 1595.05C1747.5 1595.05 1747.5 1591.39 1747.5 1587.99C1747.5 1591.39 1747.5 1595.05 1754 1595.05C1747.5 1595.05 1747.5 1599.76 1747.5 1602.9C1747.5 1599.76 1747.5 1595.05 1741 1595.05Z" fill="#F3EFE6" data-v-3479b4ac=""></path></g><g id="Group 316124360" data-v-3479b4ac=""><ellipse id="Ellipse 591_3" rx="13.5" ry="13.42" transform="matrix(-1 0 0 1 178.5 1537.42)" fill="#E07390" data-v-3479b4ac=""></ellipse><path id="Vector 570_3" d="M176 1534.05C182.5 1534.05 182.5 1530.39 182.5 1526.99C182.5 1530.39 182.5 1534.05 189 1534.05C182.5 1534.05 182.5 1538.76 182.5 1541.9C182.5 1538.76 182.5 1534.05 176 1534.05Z" fill="#F3EFE6" data-v-3479b4ac=""></path></g><g id="Group 316124361" data-v-3479b4ac=""><ellipse id="Ellipse 601" cx="1308.5" cy="82.0881" rx="69.5" ry="69.0881" fill="#473D36" data-v-3479b4ac=""></ellipse><path id="Vector 571" d="M1303.97 57.8242C1332.67 57.8242 1332.67 41.593 1332.67 26.5211C1332.67 41.593 1332.67 57.8242 1361.38 57.8242C1332.67 57.8242 1332.67 78.6929 1332.67 92.6054C1332.67 78.6929 1332.67 57.8242 1303.97 57.8242Z" fill="#F3EFE6" data-v-3479b4ac=""></path></g><g id="Group 316124362" data-v-3479b4ac=""><ellipse id="Ellipse 606" rx="13.5" ry="13.42" transform="matrix(-1 0 0 1 1583.5 13.42)" fill="#473D36" data-v-3479b4ac=""></ellipse><path id="Vector 572" d="M1582 10.0938C1588 10.0938 1588 6.91975 1588 3.97241C1588 6.91975 1588 10.0938 1594 10.0938C1588 10.0938 1588 14.1748 1588 16.8954C1588 14.1748 1588 10.0938 1582 10.0938Z" fill="#F3EFE6" data-v-3479b4ac=""></path></g><g id="Group 316124363" data-v-3479b4ac=""><ellipse id="Ellipse 606_2" rx="13.5" ry="13.42" transform="matrix(-1 0 0 1 1883.5 1337.42)" fill="#473D36" data-v-3479b4ac=""></ellipse><path id="Vector 572_2" d="M1882 1334.09C1888 1334.09 1888 1330.92 1888 1327.97C1888 1330.92 1888 1334.09 1894 1334.09C1888 1334.09 1888 1338.17 1888 1340.9C1888 1338.17 1888 1334.09 1882 1334.09Z" fill="#F3EFE6" data-v-3479b4ac=""></path></g><g id="Group 316124364" data-v-3479b4ac=""><ellipse id="Ellipse 606_3" rx="13.5" ry="13.42" transform="matrix(-1 0 0 1 160.5 1224.42)" fill="#473D36" data-v-3479b4ac=""></ellipse><path id="Vector 572_3" d="M159 1221.09C165 1221.09 165 1217.92 165 1214.97C165 1217.92 165 1221.09 171 1221.09C165 1221.09 165 1225.17 165 1227.9C165 1225.17 165 1221.09 159 1221.09Z" fill="#F3EFE6" data-v-3479b4ac=""></path></g><g id="small-balls" data-v-3479b4ac=""><ellipse id="Ellipse 751" cx="1744" cy="905.958" rx="7" ry="6.95852" fill="#B595BF" data-v-3479b4ac=""></ellipse><ellipse id="Ellipse 752" cx="1331" cy="524.958" rx="7" ry="6.95852" fill="#B595BF" data-v-3479b4ac=""></ellipse></g></g></svg>